# xmcd
#
# Track frame offsets:
# 150
# 16137
# 28403
# 41222
# 53282
# 65205
# 78393
# 94901
# 113233
# 126271
# 140071
# 150758
# 170773
# 189553
# 205722
# 221395
# 240832
# 267945
# 282715
# 292716
# 313732
# 329344
# 342860
#
# Disc length: 4756 seconds
#
# Revision: 0
# Processed by: cddbd v1.5PL3 Copyright (c) Steve Scherf et al.
# Submitted via: Audion 3.0.2 (http://www.panic.com/audion/)
#
DISCID=52129217
DTITLE=? - ?
DYEAR=1900
DGENRE=
TTITLE0=???????
TTITLE1=???????
TTITLE2=???????
TTITLE3=???????
TTITLE4=???????
TTITLE5=???????
TTITLE6=???????
TTITLE7=???????
TTITLE8=???????
TTITLE9=???????
TTITLE10=???????
TTITLE11=???????
TTITLE12=???????
TTITLE13=???????
TTITLE14=???????
TTITLE15=???????
TTITLE16=???????
TTITLE17=???????
TTITLE18=???????
TTITLE19=???????
TTITLE20=???????
TTITLE21=???????
TTITLE22=???????
EXTD=
EXTT0=
EXTT1=
EXTT2=
EXTT3=
EXTT4=
EXTT5=
EXTT6=
EXTT7=
EXTT8=
EXTT9=
EXTT10=
EXTT11=
EXTT12=
EXTT13=
EXTT14=
EXTT15=
EXTT16=
EXTT17=
EXTT18=
EXTT19=
EXTT20=
EXTT21=
EXTT22=
PLAYORDER=
